<svg width="29" height="18" viewBox="0 0 29 18" fill="none" xmlns="http://www.w3.org/2000/svg">
<path d="M18.0355 1.51449C17.747 0.786494 18.2847 0 19.0717 0H23.9576C24.4167 0 24.8233 0.272998 24.9938 0.695495L28.8828 10.3934C28.9877 10.6534 28.9877 10.9459 28.8828 11.2124L26.4366 17.3029C26.0628 18.2324 24.738 18.2324 24.3642 17.3029L18.0355 1.51449Z" fill="#AEAEB2"/>
<path d="M9.51645 1.48199C9.25413 0.760495 9.7919 0 10.5658 0H14.8221C15.2942 0 15.714 0.292498 15.8714 0.727995L19.4062 10.4259C19.4915 10.6664 19.4915 10.9329 19.4062 11.1799L17.2814 17.0104C16.9272 17.9854 15.5369 17.9854 15.1828 17.0104L9.51645 1.48199Z" fill="#AEAEB2"/>
<path d="M0.0789688 1.51449C-0.209593 0.786494 0.328181 0 1.11517 0H6.00104C6.46012 0 6.86673 0.272998 7.03724 0.695495L10.9263 10.3934C11.0312 10.6534 11.0312 10.9459 10.9263 11.2124L8.48005 17.3029C8.10623 18.2324 6.78147 18.2324 6.40765 17.3029L0.0789688 1.51449Z" fill="#AEAEB2"/>
</svg>
